<?xml version="1.0" encoding="UTF-8" standalone="no"?>
<!-- Created with Inkscape (http://www.inkscape.org/) -->

<svg
   version="1.1"
   id="svg1"
   width="416.65201"
   height="173.85867"
   viewBox="0 0 416.65201 173.85867"
   xmlns="http://www.w3.org/2000/svg"
   xmlns:svg="http://www.w3.org/2000/svg">
  <defs
     id="defs1">
    <clipPath
       clipPathUnits="userSpaceOnUse"
       id="clipPath2">
      <path
         d="M 0,130.394 H 312.489 V 0 H 0 Z"
         transform="translate(-260.15751,-56.895601)"
         id="path2" />
    </clipPath>
    <clipPath
       clipPathUnits="userSpaceOnUse"
       id="clipPath4">
      <path
         d="M 0,130.394 H 312.489 V 0 H 0 Z"
         transform="translate(-80.004805,-35.776798)"
         id="path4" />
    </clipPath>
    <clipPath
       clipPathUnits="userSpaceOnUse"
       id="clipPath6">
      <path
         d="M 0,130.394 H 312.489 V 0 H 0 Z"
         transform="translate(-215.23831,-46.241099)"
         id="path6" />
    </clipPath>
    <clipPath
       clipPathUnits="userSpaceOnUse"
       id="clipPath8">
      <path
         d="M 0,130.394 H 312.489 V 0 H 0 Z"
         transform="translate(-255.86091,-42.135801)"
         id="path8" />
    </clipPath>
    <clipPath
       clipPathUnits="userSpaceOnUse"
       id="clipPath10">
      <path
         d="M 0,130.394 H 312.489 V 0 H 0 Z"
         transform="translate(-301.90171,-46.684799)"
         id="path10" />
    </clipPath>
    <clipPath
       clipPathUnits="userSpaceOnUse"
       id="clipPath12">
      <path
         d="M 0,130.394 H 312.489 V 0 H 0 Z"
         transform="translate(-278.73541,-39.270298)"
         id="path12" />
    </clipPath>
    <clipPath
       clipPathUnits="userSpaceOnUse"
       id="clipPath14">
      <path
         d="M 0,130.394 H 312.489 V 0 H 0 Z"
         transform="translate(-160.04091,-49.856001)"
         id="path14" />
    </clipPath>
    <clipPath
       clipPathUnits="userSpaceOnUse"
       id="clipPath16">
      <path
         d="M 0,130.394 H 312.489 V 0 H 0 Z"
         transform="translate(-91.139402,-19.6049)"
         id="path16" />
    </clipPath>
    <clipPath
       clipPathUnits="userSpaceOnUse"
       id="clipPath18">
      <path
         d="M 0,130.394 H 312.489 V 0 H 0 Z"
         transform="translate(-100.98141,-50.364501)"
         id="path18" />
    </clipPath>
    <clipPath
       clipPathUnits="userSpaceOnUse"
       id="clipPath20">
      <path
         d="M 0,130.394 H 312.489 V 0 H 0 Z"
         transform="translate(-180.21651,-19.6049)"
         id="path20" />
    </clipPath>
    <clipPath
       clipPathUnits="userSpaceOnUse"
       id="clipPath22">
      <path
         d="M 0,130.394 H 312.489 V 0 H 0 Z"
         transform="translate(-192.1125,-29.117803)"
         id="path22" />
    </clipPath>
  </defs>
  <g
     id="layer-MC0">
    <path
       id="path1"
       d="m 0,0 c -0.382,0.914 -1.109,1.783 -1.721,2.56 -10.094,12.827 -20.263,21.734 -35.591,27.97 -31.279,12.725 -66.553,0.728 -86.49,-25.214 -1.091,-1.42 -1.786,-2.983 -3.077,-4.048 -0.307,-0.254 -0.457,-0.707 -0.979,-0.84 -7.237,-0.491 -14.521,-0.019 -21.747,-0.429 -0.181,0.184 0.524,2.715 0.095,3.424 -0.201,0.331 -3.436,2.553 -4.094,3.138 -2.246,2.001 -4.423,4.709 -6.13,7.191 -0.564,0.82 -2.327,3.154 -2.241,4.019 0.063,0.627 2.912,5.125 3.429,5.342 0.788,0.329 5.75,-0.47 6.895,-0.711 4.347,-0.915 8.218,-3.093 12.233,-4.844 1.814,1.48 3.027,3.558 3.867,5.715 -2.795,4.396 -6.021,8.413 -7.669,13.455 -1.088,3.329 -0.889,4.273 1.798,6.559 0.86,0.731 1.392,1.446 2.578,1.049 2.116,-0.708 6.003,-2.521 7.954,-3.655 2.391,-1.389 4.464,-3.47 6.732,-4.876 0.65,-0.404 1.627,-1.139 2.388,-0.949 1.04,0.259 4.218,3.121 4.332,4.251 0.08,0.792 -2.131,5.652 -2.524,6.98 -0.681,2.3 -1.164,4.875 -1.29,7.273 -0.039,0.751 -0.108,4.427 0.196,4.766 l 4.842,2.565 0.44,-0.14 c 3.2,-2.617 6.73,-5.32 9.474,-8.417 1.413,-1.595 3.275,-5.262 5.681,-5.128 1.125,0.063 4.88,2.096 5.02,3.341 0.064,0.562 -0.614,2.757 -0.708,3.594 -0.466,4.165 -0.071,7.848 0.894,11.848 0.191,0.791 0.332,2.561 0.661,3.144 0.38,0.673 1.249,0.441 1.878,0.596 1.265,0.313 3.042,1.311 3.991,0.342 0.9,-0.919 2.514,-3.127 3.317,-4.243 1.44,-2.002 2.924,-4.547 3.889,-6.613 0.904,-1.933 1.277,-4.93 3.819,-5.468 1.374,-0.291 5.004,0.222 5.673,1.58 0.808,1.64 0.55,4.556 0.828,6.403 0.326,2.159 2.728,9.616 3.937,11.285 0.833,1.15 3.09,0.519 4.326,0.437 0.76,-0.051 2.306,0.245 2.739,-0.307 2.55,-5.664 4.271,-11.636 5.244,-17.779 0.103,-0.302 1.805,-1.587 2.143,-1.663 0.556,-0.126 2.979,-0.126 3.536,0 1.423,0.322 1.674,2.175 2.082,3.246 1.691,4.442 4.162,8.762 7.469,12.32 0.318,0.341 1.344,1.301 1.734,1.325 0.555,0.034 0.935,-0.463 1.451,-0.626 0.653,-0.207 3.231,-0.577 3.4,-0.834 0.368,-1.346 1.158,-2.866 1.462,-4.198 0.719,-3.146 0.711,-7.399 0.426,-10.604 -0.118,-1.327 -0.636,-2.509 -0.297,-3.917 0.389,-1.616 3.628,-3.195 5.154,-3.181 2.637,0.026 4.165,4.087 5.618,5.949 2.289,2.932 5.692,5.105 8.61,7.374 l 1.289,0.056 c 1.047,-0.91 4.587,-2.092 4.763,-3.421 -0.073,-4.321 -0.514,-8.703 -1.849,-12.82 -0.219,-0.674 -0.795,-0.768 -0.831,-0.925 -0.079,-0.34 0.056,-0.815 -0.037,-1.253 -0.292,-1.373 -1.72,-1.577 -0.826,-3.573 0.595,-1.329 3.754,-3.291 5.174,-3.408 1.575,-0.129 4.338,3.513 5.691,4.557 3.135,2.422 7.159,3.571 10.805,4.917 0.612,-0.096 4.177,-3.861 4.417,-4.544 0.17,-0.487 -0.615,-3.031 -0.851,-3.704 -0.917,-2.62 -2.531,-5.424 -4.037,-7.76 -0.773,-1.199 -3.121,-3.889 -3.316,-5.073 -0.242,-1.473 3.277,-5.837 4.589,-5.831 0.344,0.002 3.663,2.028 4.404,2.376 4.302,2.02 8.802,2.452 13.497,2.889 1.19,-0.161 0.837,-0.952 1.226,-1.589 0.187,-0.305 0.755,-0.79 1.037,-1.285 1.056,-1.851 1.1,-2.259 0.269,-4.243 C 31.014,10.765 26.341,7.727 22.559,4.372 20.178,2.26 22.282,2.529 21.698,0 Z"
       style="fill:#000000;fill-opacity:1;fill-rule:nonzero;stroke:none"
       transform="matrix(1.3333333,0,0,-1.3333333,346.87667,97.997867)"
       clip-path="url(#clipPath2)" />
    <path
       id="path3"
       d="m 0,0 c 0.453,-0.139 0.284,-1.362 0.236,-1.76 -1.121,-9.262 -5.304,-19.584 -12.467,-25.631 -7.845,-6.623 -15.321,-8.283 -25.654,-8.005 -36.547,0.982 -49.716,40.277 -37.916,70.641 7.38,18.992 22.757,31.377 43.991,28.849 7.005,-0.834 13.362,-4.078 18.865,-8.351 0.46,0.003 3.331,6.467 3.874,7.358 0.452,0.74 0.519,1.048 1.476,1.188 3.733,0.549 3.545,-0.923 3.706,-3.887 0.519,-9.575 0.984,-19.398 1.508,-29.106 0.101,-1.884 0.098,-3.791 0.201,-5.676 -0.137,-0.569 -4.031,-0.721 -4.484,-0.318 -0.592,0.526 -2.292,6.455 -2.754,7.711 -2.639,7.175 -6.353,15.41 -12.474,20.256 -14.489,11.467 -29.382,4.829 -36.671,-10.331 -0.234,-0.488 -1.548,-3.163 -1.596,-3.344 -0.166,-0.624 -0.028,-1.269 -0.167,-1.933 -0.153,-0.735 -0.705,-1.069 -0.825,-1.458 -0.198,-0.639 -0.158,-1.743 -0.352,-2.503 -0.267,-1.047 -1.051,-2.804 -1.201,-3.746 -0.194,-1.212 0.068,-2.874 -0.014,-4.172 -0.175,-2.784 -0.652,-5.577 -0.767,-8.365 -0.23,-5.611 0.409,-10.713 0.946,-16.211 0.09,-0.917 -0.15,-1.974 0.062,-3.155 0.13,-0.725 0.193,-1.726 0.91,-1.788 0.362,-0.968 0.272,-2.481 0.615,-3.347 4.233,-10.665 9.325,-20.546 22.34,-22.38 5.145,-0.726 12.954,0.415 17.517,2.985 9.797,5.519 14.25,15.811 16.051,26.479 z"
       style="fill:#000000;fill-opacity:1;fill-rule:nonzero;stroke:none"
       transform="matrix(1.3333333,0,0,-1.3333333,106.67307,126.15627)"
       clip-path="url(#clipPath4)" />
    <path
       id="path5"
       d="m 0,0 c 0.045,0.471 -0.175,2.747 0.317,2.862 l 7.02,0.191 c 0.517,0.048 0.998,-0.207 1.506,-0.207 3.528,0.003 7.005,0.193 10.478,0.009 0.775,-0.041 3.254,0.234 3.617,-0.38 0.119,-0.462 0.249,-1.937 -0.093,-2.193 -0.672,-0.501 -4.948,0.212 -6.304,-0.173 -0.627,-0.705 -1.824,-0.947 -1.704,-2.098 l 0.204,-38.817 c 0.154,-0.812 2.548,-1.547 3.33,-1.618 0.625,-0.057 4.465,-0.005 4.661,-0.193 l -0.022,-2.264 c -0.4,-0.087 -0.795,-0.19 -1.21,-0.218 -6.853,-0.47 -14.232,0.375 -21.143,-0.002 l -0.63,0.322 0.151,2.268 c 1.79,0.168 6.507,-0.295 7.155,1.981 0.567,1.989 0.289,5.709 0.288,7.908 -0.004,9.81 -0.011,19.77 -0.007,29.674 C 7.58,-1.981 6.479,0 5.425,0 Z"
       style="fill:#000000;fill-opacity:1;fill-rule:nonzero;stroke:none"
       transform="matrix(1.3333333,0,0,-1.3333333,286.9844,112.20387)"
       clip-path="url(#clipPath6)" />
    <path
       id="path7"
       d="m 0,0 c 5.812,-7.281 6.455,-18.45 3.779,-27.245 -1.741,-5.721 -5.912,-10.067 -11.476,-12.313 -0.94,-0.379 -4.973,-1.442 -5.766,-1.2 -0.795,0.242 -0.922,2.29 -0.607,2.815 0.247,0.41 2.689,1.439 3.315,1.824 6.443,3.952 7.375,10.379 7.816,17.491 0.36,5.816 -1.645,16.927 -6.801,20.453 -0.752,0.514 -4.009,1.645 -4.25,1.98 -0.346,0.48 -0.296,3.105 0.326,3.319 C -12.752,7.438 -8.136,6.055 -7.055,5.6 -4.173,4.386 -1.922,2.408 0,0"
       style="fill:#000000;fill-opacity:1;fill-rule:nonzero;stroke:none"
       transform="matrix(1.3333333,0,0,-1.3333333,341.14787,117.6776)"
       clip-path="url(#clipPath8)" />
    <path
       id="path9"
       d="m 0,0 c 7.406,-4.744 10.248,-11.616 10.56,-20.326 0.294,-8.229 -1.69,-15.405 -7.917,-21.013 -3.408,-3.068 -7.674,-4.924 -12.284,-5.346 -0.432,0.105 -0.439,2.559 -0.141,2.972 0.273,0.38 3.348,1.46 4.143,1.946 6.595,4.036 8.111,14.174 7.871,21.26 -0.228,6.772 -1.675,16.013 -8.315,19.466 -0.637,0.331 -3.49,1.353 -3.703,1.626 -0.324,0.417 -0.286,2.392 0.206,2.683 1.078,0.636 5.843,-1.082 7.085,-1.674 C -1.491,1.116 -0.806,0.516 0,0"
       style="fill:#000000;fill-opacity:1;fill-rule:nonzero;stroke:none"
       transform="matrix(1.3333333,0,0,-1.3333333,402.5356,111.61227)"
       clip-path="url(#clipPath10)" />
    <path
       id="path11"
       d="m 0,0 c -1.919,-4.211 -1.448,-7.024 -2.004,-11.402 -0.046,-0.364 -0.364,-0.181 -0.41,-0.545 -0.234,-1.848 0.181,-5.302 0.398,-7.24 0.445,-3.982 1.626,-10.17 4.463,-13.042 0.465,-0.471 1.205,-0.641 1.614,-1.052 1.112,-1.119 1.011,-1.343 2.743,-2.036 0.301,-0.12 0.62,0.033 0.662,0.007 0.706,-0.446 0.387,-0.36 1.41,-0.768 0.905,-0.36 1.127,-2.111 0.734,-2.917 -0.396,-0.502 -2.511,-0.143 -3.102,0.131 -1.258,0.582 -0.674,0.249 -1.869,0.436 -3.313,0.519 -8.492,4.962 -10.429,7.668 -3.527,4.926 -4.855,9.109 -4.802,15.193 0.046,5.232 -0.185,8.587 2.129,13.473 2.275,4.804 5.604,8.775 10.504,11 1.944,0.883 2.951,0.895 4.753,1.329 0.397,0.095 0.711,0.806 1.667,0.649 C 9.697,10.682 10.15,8.422 9.206,8.021 8.871,7.879 8.494,7.978 8.219,7.867 4.402,6.328 1.694,3.717 0,0"
       style="fill:#000000;fill-opacity:1;fill-rule:nonzero;stroke:none"
       transform="matrix(1.3333333,0,0,-1.3333333,371.6472,121.49827)"
       clip-path="url(#clipPath12)" />
    <path
       id="path13"
       d="m 0,0 0.382,-18.076 c -0.824,0.099 -2.196,-0.256 -2.849,0.294 -0.483,0.406 -1.851,4.663 -2.318,5.674 -1.053,2.278 -2.596,4.697 -4.539,6.307 -4.894,4.055 -13.149,4.531 -16.258,-1.828 -2.803,-5.732 1.551,-9.736 6.779,-11.261 5.613,-1.637 12.708,-2.182 17.371,-6.038 7.813,-6.461 4.453,-20.124 -4.682,-23.469 -2.353,-0.862 -9.858,-1.039 -12.398,-0.644 -2.412,0.375 -5.167,2.351 -7.255,3.554 -1.722,-2.015 -2.988,-4.917 -6.217,-3.682 l 0.096,18.354 c 0.944,0.551 2.025,0.636 2.664,-0.395 0.99,-1.598 1.53,-4.539 2.538,-6.405 2.708,-5.009 9.063,-9.725 14.979,-9.187 7.749,0.705 13.629,10.813 5.553,15.441 -7.011,4.018 -21.267,2.937 -24.307,11.662 -1.55,4.447 -0.953,11.497 2.105,15.224 5.585,6.804 16.476,5.974 22.933,0.865 L -2.95,0 Z"
       style="fill:#000000;fill-opacity:1;fill-rule:nonzero;stroke:none"
       transform="matrix(1.3333333,0,0,-1.3333333,213.38787,107.384)"
       clip-path="url(#clipPath14)" />
    <path
       id="path15"
       d="m 0,0 h 15.037 c -0.498,1.899 -1.71,3.706 -1.713,5.708 h 6.947 c 1.202,-2.056 2.085,-4.322 2.986,-6.528 1.549,-3.795 2.762,-8.113 4.391,-11.783 0.169,-0.38 0.705,-1.303 0.968,-1.601 0.118,-0.135 1.6,-1.299 1.702,-1.335 0.647,-0.231 2.589,-0.107 2.898,-0.631 0.115,-0.69 0.311,-1.762 -0.193,-2.285 H 14.275 l -0.169,2.453 c 2.142,0.534 4.947,0.044 6.413,2.044 l -4.325,11.024 -17.248,0.283 -0.3,-0.125 c -0.629,-1.999 -1.6,-3.894 -2.266,-5.877 -0.555,-1.653 -1.405,-3.126 -0.265,-4.649 1.479,-1.977 3.825,-2.357 6.132,-2.716 0.403,-0.842 0.05,-1.571 0.035,-2.435 l -17.424,-0.012 0.086,2.598 c 1.12,0.634 2.556,0.561 3.623,1.325 1.269,0.909 2.498,3.424 3.147,4.845 2.21,4.837 3.81,10.127 5.9,15.031 C -1.573,5.719 1.394,6.06 1.687,5.002 1.93,4.127 0.02,1.134 0,0"
       style="fill:#000000;fill-opacity:1;fill-rule:nonzero;stroke:none"
       transform="matrix(1.3333333,0,0,-1.3333333,121.5192,147.7188)"
       clip-path="url(#clipPath16)" />
    <path
       id="path17"
       d="M 0,0 C 0.046,-0.019 0.061,-0.198 0.137,-0.243 0.301,-0.338 0.548,-0.298 0.643,-0.435 0.76,-0.604 0.713,-0.974 0.82,-1.121 1.83,-2.5 1.855,-2.989 2.551,-4.538 2.617,-4.684 2.896,-4.704 2.915,-4.826 2.974,-5.19 2.699,-5.527 2.713,-5.724 2.723,-5.853 3.105,-5.892 3.257,-6.149 3.502,-6.564 3.62,-7.486 3.868,-7.969 3.986,-8.2 4.358,-8.212 4.402,-8.416 4.439,-8.586 4.225,-8.857 4.286,-9.115 4.454,-9.819 5.12,-10.748 5.2,-11.543 l 0.373,0.19 c 0.225,-0.454 -0.022,-0.91 0.082,-1.331 0.237,-0.956 1.781,-2.034 1.332,-3.424 1.124,-1.449 1.404,-3.241 1.821,-4.999 -0.22,-0.151 -0.391,-0.516 -0.663,-0.539 -0.362,-0.03 -1.981,-0.035 -2.297,0.002 -0.36,0.041 -0.181,0.366 -0.546,0.412 -0.782,0.099 -1.77,-0.1 -2.583,-0.016 l 0.193,-0.378 c -0.308,0.006 -0.68,-0.073 -0.955,0.092 -0.78,0.467 -3.511,8.793 -4.09,10.183 -0.213,0.004 -1.306,-3.48 -1.573,-3.951 -0.187,-0.33 -0.611,-0.424 -0.629,-0.554 -0.052,-0.377 0.307,-0.984 -0.194,-1.573 l -0.357,0.176 c -0.144,-0.808 -0.61,-1.52 -0.865,-2.283 -0.149,-0.446 0.031,-1.342 -0.57,-1.906 -0.412,-0.386 -0.718,0.031 -1.142,0.006 -0.872,-0.051 -1.817,-0.35 -2.76,-0.191 -0.261,0.266 0.643,2.442 0.809,2.901 2.098,5.774 4.78,11.35 6.828,17.148 C -2.223,-0.713 -0.958,0.408 0,0"
       style="fill:#000000;fill-opacity:1;fill-rule:nonzero;stroke:none"
       transform="matrix(1.3333333,0,0,-1.3333333,134.64187,106.706)"
       clip-path="url(#clipPath18)" />
    <path
       id="path19"
       d="m 0,0 h 14.751 l 0.211,0.394 c -0.612,1.732 -1.68,3.414 -1.638,5.314 h 6.947 l 0.424,-0.244 c 0.13,-0.606 0.472,-1.107 0.715,-1.662 2.255,-5.154 4.085,-12.179 6.728,-16.867 1.281,-2.273 2.947,-2.888 5.552,-2.725 -0.111,-0.56 0.286,-2.443 -0.313,-2.639 h -18.79 c -0.373,0.126 -0.963,2.012 -0.505,2.356 0.647,0.488 4.163,0.499 5.335,0.944 1.989,0.755 0.606,3.103 0.086,4.468 -1.007,2.647 -2.197,5.262 -3.402,7.825 l -16.778,0.183 c -0.721,-0.048 -1.27,-1.555 -1.565,-2.24 -0.6,-1.39 -1.819,-4.54 -2.049,-5.943 -0.686,-4.197 3.781,-4.467 6.74,-5.362 l -0.255,-2.072 -16.853,-0.283 c -1.882,3.607 1.394,2.765 3.227,4.01 3.478,2.364 6.399,13.391 8.298,17.581 0.646,1.426 0.896,2.48 2.657,2.67 0.541,0.058 2.15,0.124 2.356,-0.51 C 2.17,4.304 0.367,1.028 0,0"
       style="fill:#000000;fill-opacity:1;fill-rule:nonzero;stroke:none"
       transform="matrix(1.3333333,0,0,-1.3333333,240.28867,147.7188)"
       clip-path="url(#clipPath20)" />
    <path
       id="path21"
       d="M 0,0 C -0.04,0 -0.156,-0.192 -0.289,-0.109 L -0.454,0.108 C -1.69,3.287 -3.109,6.426 -3.905,9.764 -4.077,10.145 -4.645,9.847 -4.818,9.573 -5.363,8.71 -5.561,7.206 -5.857,6.235 -6.128,5.348 -6.644,4.682 -6.569,3.614 L -6.942,3.805 -7.912,0.579 -8.277,0.762 -8.28,-0.379 c -0.887,0.195 -2.057,0.305 -2.962,0.204 -0.382,-0.043 -0.242,-0.592 -0.843,-0.395 -0.252,0.242 0.98,3.648 1.189,4.232 2.017,5.649 4.65,11.091 6.654,16.75 2.125,1.638 3.418,0.182 4.054,-1.974 l 0.472,0.017 0.004,-1.142 0.373,0.19 C 1.157,16.367 1.25,15.227 1.635,14.092 l 0.356,0.175 0.864,-2.283 C 2.766,10.663 3.679,9.487 3.908,8.183 L 4.28,8.372 C 4.502,7.916 4.262,7.472 4.365,7.044 4.706,5.613 5.979,2.373 6.58,0.905 6.675,0.674 7.186,0.889 6.757,0 4.507,-0.011 2.252,0.016 0,0"
       style="fill:#000000;fill-opacity:1;fill-rule:nonzero;stroke:none"
       transform="matrix(1.3333333,0,0,-1.3333333,256.15,135.03493)"
       clip-path="url(#clipPath22)" />
  </g>
</svg>
