<?xml version="1.0" encoding="UTF-8" standalone="no"?>
<!-- Created with Inkscape (http://www.inkscape.org/) -->

<svg
   version="1.1"
   id="svg1"
   width="397.59067"
   height="71.811066"
   viewBox="0 0 397.59067 71.811066"
   xmlns="http://www.w3.org/2000/svg"
   xmlns:svg="http://www.w3.org/2000/svg">
  <defs
     id="defs1">
    <clipPath
       clipPathUnits="userSpaceOnUse"
       id="clipPath2">
      <path
         d="M 0,53.858 H 298.193 V 0 H 0 Z"
         transform="translate(-26.0506,-53.858301)"
         id="path2" />
    </clipPath>
    <clipPath
       clipPathUnits="userSpaceOnUse"
       id="clipPath4">
      <path
         d="M 0,53.858 H 298.193 V 0 H 0 Z"
         transform="translate(-119.1201,-53.858301)"
         id="path4" />
    </clipPath>
    <clipPath
       clipPathUnits="userSpaceOnUse"
       id="clipPath6">
      <path
         d="M 0,53.858 H 298.193 V 0 H 0 Z"
         transform="translate(-217.1503,-22.205201)"
         id="path6" />
    </clipPath>
    <clipPath
       clipPathUnits="userSpaceOnUse"
       id="clipPath8">
      <path
         d="M 0,53.858 H 298.193 V 0 H 0 Z"
         transform="translate(-298.1728,-53.858301)"
         id="path8" />
    </clipPath>
    <clipPath
       clipPathUnits="userSpaceOnUse"
       id="clipPath10">
      <path
         d="M 0,53.858 H 298.193 V 0 H 0 Z"
         transform="translate(-153.1354,-28.346801)"
         id="path10" />
    </clipPath>
  </defs>
  <g
     id="layer-MC0">
    <path
       id="path1"
       d="m 0,0 12.524,-34.02 c 0.907,-0.084 0.903,0.637 1.157,1.205 3.609,8.064 7.812,19.216 10.64,27.628 0.513,1.527 0.792,3.575 1.19,5.187 h 24.567 l -0.584,-2.723 c -2.196,-0.953 -5.063,-0.42 -6.74,-2.472 l -0.266,-42.303 c 1.329,-2.805 4.552,-2.165 7.004,-3.164 0.728,-0.716 0.788,-3.196 -0.123,-3.196 H 21.023 c -1.023,0.749 -0.747,2.14 -0.681,3.283 2.944,0.352 5.589,0.559 8.004,2.387 V -7.559 L 10.632,-52.443 5.661,-52.685 -11.811,-7.087 v -35.668 c 0,-0.168 0.887,-2.804 1.068,-3.185 1.662,-3.501 5.009,-3.608 8.317,-4.673 0.172,-1.11 0.345,-2.509 -0.645,-3.245 h -22.204 c -0.719,0 -1.58,2.717 0.699,3.553 3.397,1.246 6.81,0.753 7.538,5.69 1.573,10.664 -1.137,24.858 0.061,35.905 -0.388,4.242 -4.933,5.493 -8.486,5.922 L -25.511,0 Z"
       style="fill:#000000;fill-opacity:1;fill-rule:nonzero;stroke:none"
       transform="matrix(1.3333333,0,0,-1.3333333,34.734133,0)"
       clip-path="url(#clipPath2)" />
    <path
       id="path3"
       d="m 0,0 c 0.812,-5.086 -5.567,-2.074 -7.797,-5.195 l -0.224,-42.274 c 0.609,-3.153 6.912,-2.182 7.804,-3.533 0.496,-0.752 0.217,-2.856 -0.492,-2.856 h -28.818 c -0.144,0 -1.026,0.947 -1.109,1.281 -1.016,4.11 7.45,0.352 8.408,5.593 l -0.223,40.832 c -1.74,2.606 -5.032,2.432 -7.675,3.427 L -30.708,0 Z"
       style="fill:#000000;fill-opacity:1;fill-rule:nonzero;stroke:none"
       transform="matrix(1.3333333,0,0,-1.3333333,158.8268,0)"
       clip-path="url(#clipPath4)" />
    <path
       id="path5"
       d="M 0,0 H 13.937 L 7.082,17.957 5.812,16.865 -0.507,0.964 Z m 13.701,-22.204 c -0.867,0.266 -1.079,2.443 -0.239,3.076 1.308,1.119 7.53,0.413 7.366,2.822 l -4.763,11.584 -0.94,0.477 -17.646,-0.087 -3.786,-11.397 c 1.657,-2.694 5.161,-2.756 7.934,-3.192 0.04,-1 0.387,-2.845 -0.748,-3.218 l -20.25,-0.066 c -1.577,0.153 -1.181,1.808 -1.208,3.02 3.195,0.94 6.823,1.528 8.535,4.773 l 19.116,45.607 9.156,0.381 18.475,-46.006 c 0.669,-1 1.393,-2.11 2.428,-2.769 2.716,-1.732 7.39,-0.545 5.624,-5.005 z"
       style="fill:#000000;fill-opacity:1;fill-rule:nonzero;stroke:none"
       transform="matrix(1.3333333,0,0,-1.3333333,289.53373,42.204133)"
       clip-path="url(#clipPath6)" />
    <path
       id="path7"
       d="m 0,0 c 0.486,-6.354 -7.858,-0.434 -8.526,-7.773 -1.113,-12.22 0.784,-26.242 0.135,-38.649 0.522,-5.707 10.177,-1.325 7.919,-7.436 h -29.764 l 0.005,3.303 c 2.413,0.319 7.442,0.052 8.015,3.087 l -0.235,41.316 c -1.69,2.387 -4.631,2.676 -7.342,3.052 L -30.236,0 Z"
       style="fill:#000000;fill-opacity:1;fill-rule:nonzero;stroke:none"
       transform="matrix(1.3333333,0,0,-1.3333333,397.56373,0)"
       clip-path="url(#clipPath8)" />
    <path
       id="path9"
       d="M 0,0 C 7.868,-0.711 13.716,2.101 14.192,10.608 14.72,20.073 9.254,22.173 0.796,22.219 0.484,22.123 0,21.155 0,21.023 Z m 17.716,25.511 c 0.667,-0.117 4.529,-1.749 5.379,-2.18 12.13,-6.133 5.983,-22.804 -6.064,-24.774 l 0.048,-1.076 c 4.667,-4.323 13.516,-19.757 18.951,-21.686 1.51,-0.536 3.196,-0.121 4.369,-1.298 0.551,-0.629 0.215,-2.843 -0.478,-2.843 H 19.606 C 14.328,-21.466 9.714,-12.647 3.766,-6.392 2.649,-5.217 1.868,-3.9 0,-4.252 v -16.771 c 0,-4.718 9.698,-1.817 7.087,-7.323 h -28.11 c -1.024,0.749 -0.747,2.14 -0.681,3.282 3.134,0.525 7.183,0.197 7.977,4.067 -0.807,12.304 1.164,26.146 0.049,38.263 -0.453,4.925 -4.292,4.113 -7.993,5.473 l -0.061,2.772 z"
       style="fill:#000000;fill-opacity:1;fill-rule:nonzero;stroke:none"
       transform="matrix(1.3333333,0,0,-1.3333333,204.18053,34.015333)"
       clip-path="url(#clipPath10)" />
  </g>
</svg>
