<?xml version="1.0" encoding="UTF-8" standalone="no"?>
<!-- Created with Inkscape (http://www.inkscape.org/) -->

<svg
   version="1.1"
   id="svg1"
   width="615.51733"
   height="128.50388"
   viewBox="0 0 615.51733 128.50388"
   xmlns="http://www.w3.org/2000/svg"
   xmlns:svg="http://www.w3.org/2000/svg">
  <defs
     id="defs1">
    <clipPath
       clipPathUnits="userSpaceOnUse"
       id="clipPath2">
      <path
         d="M 0,96.378 H 461.638 V 0 H 0 Z"
         transform="translate(-203.542,-67.427002)"
         id="path2" />
    </clipPath>
    <clipPath
       clipPathUnits="userSpaceOnUse"
       id="clipPath4">
      <path
         d="M 0,96.378 H 461.638 V 0 H 0 Z"
         transform="translate(-278.5711,-77.683602)"
         id="path4" />
    </clipPath>
    <clipPath
       clipPathUnits="userSpaceOnUse"
       id="clipPath6">
      <path
         d="M 0,96.378 H 461.638 V 0 H 0 Z"
         transform="translate(-156.79221,-30.987801)"
         id="path6" />
    </clipPath>
    <clipPath
       clipPathUnits="userSpaceOnUse"
       id="clipPath8">
      <path
         d="M 0,96.378 H 461.638 V 0 H 0 Z"
         transform="translate(0,-82.034602)"
         id="path8" />
    </clipPath>
    <clipPath
       clipPathUnits="userSpaceOnUse"
       id="clipPath10">
      <path
         d="M 0,96.378 H 461.638 V 0 H 0 Z"
         transform="translate(-122.47371,-87.316402)"
         id="path10" />
    </clipPath>
    <clipPath
       clipPathUnits="userSpaceOnUse"
       id="clipPath12">
      <path
         d="M 0,96.378 H 461.638 V 0 H 0 Z"
         transform="translate(-69.902302,-59.108202)"
         id="path12" />
    </clipPath>
    <clipPath
       clipPathUnits="userSpaceOnUse"
       id="clipPath14">
      <path
         d="M 0,96.378 H 461.638 V 0 H 0 Z"
         transform="translate(-385.69301,-96.378002)"
         id="path14" />
    </clipPath>
    <clipPath
       clipPathUnits="userSpaceOnUse"
       id="clipPath16">
      <path
         d="M 0,96.378 H 461.638 V 0 H 0 Z"
         transform="translate(-434.83971,-69.944502)"
         id="path16" />
    </clipPath>
    <clipPath
       clipPathUnits="userSpaceOnUse"
       id="clipPath18">
      <path
         d="M 0,96.378 H 461.638 V 0 H 0 Z"
         transform="translate(-406.86531,-69.944502)"
         id="path18" />
    </clipPath>
  </defs>
  <g
     id="layer-MC0">
    <path
       id="path1"
       d="m 0,0 15.306,-22.919 h 5.361 L 36.749,-0.08 v -34.419 h 13.206 v 54.391 h -9.857 c -3.73,0 -5.052,-1.867 -7.382,-5.132 L 18.341,-5.518 2.259,19.892 H -8.158 c -3.029,0 -4.272,-2.331 -4.272,-5.288 V -34.499 H 0 Z"
       style="fill:#231f20;fill-opacity:1;fill-rule:nonzero;stroke:none"
       transform="matrix(1.3333333,0,0,-1.3333333,271.38933,38.6012)"
       clip-path="url(#clipPath2)" />
    <path
       id="path3"
       d="m 0,0 h 4.509 c 8.155,0 9.944,-4.506 9.944,-8.083 C 14.453,-19.191 0,-18.572 0,-18.572 Z m 0,-28.204 c 0.158,0 27.659,-0.856 27.659,21.677 0,8.079 -5.052,16.162 -19.967,16.162 h -18.415 c -3.029,0 -4.273,-2.33 -4.273,-5.286 V -44.755 H 0 Z"
       style="fill:#231f20;fill-opacity:1;fill-rule:nonzero;stroke:none"
       transform="matrix(1.3333333,0,0,-1.3333333,371.42813,24.925733)"
       clip-path="url(#clipPath4)" />
    <path
       id="path5"
       d="M 0,0 C 19.734,0 24.242,11.341 24.242,21.054 V 56.329 H 13.517 c -3.028,0 -4.271,-2.333 -4.271,-5.284 V 22.142 C 9.246,17.326 7.847,10.799 0,10.799 c -7.847,0 -9.246,6.527 -9.246,11.343 v 34.187 h -10.723 c -3.029,0 -4.271,-2.333 -4.271,-5.284 V 21.054 C -24.24,11.341 -19.734,0 0,0"
       style="fill:#231f20;fill-opacity:1;fill-rule:nonzero;stroke:none"
       transform="matrix(1.3333333,0,0,-1.3333333,209.05627,87.1868)"
       clip-path="url(#clipPath6)" />
    <path
       id="path7"
       d="M 0,0 V -7.46 H 16.635 V -49.106 H 31.711 V -7.46 H 44 c 3.032,0 4.276,2.331 4.276,5.286 V 5.282 H 4.196 C 1.167,5.282 0,2.95 0,0"
       style="fill:#231f20;fill-opacity:1;fill-rule:nonzero;stroke:none"
       transform="matrix(1.3333333,0,0,-1.3333333,0,19.1244)"
       clip-path="url(#clipPath8)" />
    <path
       id="path9"
       d="m 0,0 h -10.723 c -3.03,0 -4.273,-2.328 -4.273,-5.282 V -54.388 H 0 Z"
       style="fill:#231f20;fill-opacity:1;fill-rule:nonzero;stroke:none"
       transform="matrix(1.3333333,0,0,-1.3333333,163.29827,12.082)"
       clip-path="url(#clipPath10)" />
    <path
       id="path11"
       d="m 0,0 v 18.564 h 4.351 c 8.156,0 9.941,-4.506 9.941,-8.078 C 14.292,-0.622 0,0 0,0 m 284.422,28.2 c -3.029,0 -4.272,-2.332 -4.272,-5.28 V 14.262 C 272.815,12.845 265.934,9.929 259.709,6.463 V 19.889 28.2 h -10.723 c -3.028,0 -4.274,-2.332 -4.274,-5.28 V -3.475 c -2.38,-1.803 -4.565,-3.53 -6.52,-5.068 -36.889,-28.969 -73.781,-42.017 -119.142,-42.333 -39.3,-0.3 -83.158,11.794 -104.25,44.056 6.509,2.753 12.695,8.172 12.695,18.859 0,8.077 -5.049,16.156 -19.96,16.156 H -10.87 c -3.031,0 -4.275,-2.333 -4.275,-5.283 v -49.09 H 0 v 16.547 c 0,0 0.314,-0.008 0.867,0 23.973,-28.723 62.608,-49.477 118.183,-49.477 52.887,0 91.224,17.015 125.662,43.068 v -10.127 h 14.997 v 21.042 c 6.403,4.133 13.196,7.489 20.441,8.597 v -29.639 h 14.99 V 19.889 28.2 Z"
       style="fill:#231f20;fill-opacity:1;fill-rule:nonzero;stroke:none"
       transform="matrix(1.3333333,0,0,-1.3333333,93.203067,49.692933)"
       clip-path="url(#clipPath12)" />
    <path
       id="path13"
       d="m 0,0 c -1.095,0 -1.908,-0.107 -2.625,-0.347 -1.353,-0.46 -2.266,-1.28 -2.712,-2.434 -0.56,-1.437 -0.294,-3.386 0.708,-5.211 l 35.081,-61.18 c 1.32,-2.311 2.728,-3.299 4.706,-3.299 1.98,0 3.388,0.988 4.709,3.299 l 35.082,61.18 c 1.002,1.825 1.266,3.774 0.708,5.211 -0.448,1.154 -1.361,1.974 -2.713,2.434 C 72.227,-0.107 71.412,0 70.319,0 Z"
       style="fill:#231f20;fill-opacity:1;fill-rule:nonzero;stroke:none"
       transform="matrix(1.3333333,0,0,-1.3333333,514.25733,-1.3333333e-4)"
       clip-path="url(#clipPath14)" />
    <path
       id="path15"
       d="M 0,0 8.281,-4.497 9.968,-1.559 0,3.584 h 12.917 l 2.589,4.518 H -4.519 V -26.821 L 0,-18.938 Z"
       style="fill:#ffffff;fill-opacity:1;fill-rule:nonzero;stroke:none"
       transform="matrix(1.3333333,0,0,-1.3333333,579.78627,35.244533)"
       clip-path="url(#clipPath16)" />
    <path
       id="path17"
       d="M 0,0 -8.282,-4.497 -9.968,-1.559 0,3.584 h -12.917 l -2.588,4.518 H 4.519 V -26.821 L 0,-18.938 Z"
       style="fill:#ffffff;fill-opacity:1;fill-rule:nonzero;stroke:none"
       transform="matrix(1.3333333,0,0,-1.3333333,542.48707,35.244533)"
       clip-path="url(#clipPath18)" />
  </g>
</svg>
